<svg width="21" height="18" viewBox="0 0 21 18" fill="none" xmlns="http://www.w3.org/2000/svg">
<path d="M19.1038 1.59133C18.598 1.08683 17.9975 0.686629 17.3365 0.413583C16.6756 0.140537 15.9671 0 15.2516 0C14.5362 0 13.8277 0.140537 13.1667 0.413583C12.5058 0.686629 11.9052 1.08683 11.3994 1.59133L10.3497 2.63785L9.30004 1.59133C8.27837 0.572757 6.89269 0.000527962 5.44783 0.000527973C4.00298 0.000527984 2.6173 0.572757 1.59563 1.59133C0.573967 2.6099 1.0765e-08 3.99139 0 5.43187C-1.0765e-08 6.87235 0.573967 8.25383 1.59563 9.2724L2.64533 10.3189L10.3497 18L18.0541 10.3189L19.1038 9.2724C19.6099 8.76814 20.0113 8.16942 20.2852 7.51045C20.559 6.85148 20.7 6.14517 20.7 5.43187C20.7 4.71857 20.559 4.01225 20.2852 3.35328C20.0113 2.69431 19.6099 2.09559 19.1038 1.59133Z" fill="#D9D9D9"/>
</svg>
