<svg width="21" height="21" viewBox="0 0 21 21" fill="none" xmlns="http://www.w3.org/2000/svg">
<path d="M19.05 19.6C18.7739 19.6 18.55 19.3761 18.55 19.1V0.500001C18.55 0.223859 18.3261 0 18.05 0H2.95C2.67386 0 2.45 0.223858 2.45 0.5V19.1C2.45 19.3761 2.22614 19.6 1.95 19.6H0.5C0.223858 19.6 0 19.8239 0 20.1V20.5C0 20.7761 0.223858 21 0.5 21H20.5C20.7761 21 21 20.7761 21 20.5V20.1C21 19.8239 20.7761 19.6 20.5 19.6H19.05ZM17.15 19.1C17.15 19.3761 16.9261 19.6 16.65 19.6H11.7C11.4239 19.6 11.2 19.3761 11.2 19.1V17.3C11.2 17.0239 10.9761 16.8 10.7 16.8H10.3C10.0239 16.8 9.8 17.0239 9.8 17.3V19.1C9.8 19.3761 9.57614 19.6 9.3 19.6H4.35C4.07386 19.6 3.85 19.3761 3.85 19.1V1.9C3.85 1.62386 4.07386 1.4 4.35 1.4H16.65C16.9261 1.4 17.15 1.62386 17.15 1.9V19.1Z" fill="#7E7E7E"/>
</svg>
