<svg width="22" height="20" viewBox="0 0 22 20" fill="none" xmlns="http://www.w3.org/2000/svg">
<path d="M5 7.3V1H17V7.3" stroke="#7E7E7E" stroke-width="1.5" stroke-linecap="round" stroke-linejoin="round"/>
<path d="M5 15.3998H3C2.46957 15.3998 1.96086 15.2102 1.58579 14.8726C1.21071 14.535 1 14.0772 1 13.5998V9.0998C1 8.62242 1.21071 8.16458 1.58579 7.82701C1.96086 7.48945 2.46957 7.2998 3 7.2998H19C19.5304 7.2998 20.0391 7.48945 20.4142 7.82701C20.7893 8.16458 21 8.62242 21 9.0998V13.5998C21 14.0772 20.7893 14.535 20.4142 14.8726C20.0391 15.2102 19.5304 15.3998 19 15.3998H17" stroke="#7E7E7E" stroke-width="1.5" stroke-linecap="round" stroke-linejoin="round"/>
<path d="M17 11.7998H5V18.9998H17V11.7998Z" stroke="#7E7E7E" stroke-width="1.5" stroke-linecap="round" stroke-linejoin="round"/>
</svg>
