<svg width="21" height="21" viewBox="0 0 21 21" fill="none" xmlns="http://www.w3.org/2000/svg">
<path d="M19.05 19.6C18.7739 19.6 18.55 19.3761 18.55 19.1V0.500001C18.55 0.223859 18.3261 0 18.05 0H2.95C2.67386 0 2.45 0.223858 2.45 0.5V19.1C2.45 19.3761 2.22614 19.6 1.95 19.6H0.5C0.223858 19.6 0 19.8239 0 20.1V20.5C0 20.7761 0.223858 21 0.5 21H20.5C20.7761 21 21 20.7761 21 20.5V20.1C21 19.8239 20.7761 19.6 20.5 19.6H19.05ZM17.15 19.1C17.15 19.3761 16.9261 19.6 16.65 19.6H11.7C11.4239 19.6 11.2 19.3761 11.2 19.1V17.3C11.2 17.0239 10.9761 16.8 10.7 16.8H10.3C10.0239 16.8 9.8 17.0239 9.8 17.3V19.1C9.8 19.3761 9.57614 19.6 9.3 19.6H4.35C4.07386 19.6 3.85 19.3761 3.85 19.1V1.9C3.85 1.62386 4.07386 1.4 4.35 1.4H16.65C16.9261 1.4 17.15 1.62386 17.15 1.9V19.1Z" fill="#7E7E7E"/>
<path d="M6.30078 13.1002C6.30078 12.8241 6.52464 12.6002 6.80078 12.6002H7.20078C7.47692 12.6002 7.70078 12.8241 7.70078 13.1002V13.5002C7.70078 13.7763 7.47692 14.0002 7.20078 14.0002H6.80078C6.52464 14.0002 6.30078 13.7763 6.30078 13.5002V13.1002ZM9.80078 13.1002C9.80078 12.8241 10.0246 12.6002 10.3008 12.6002H10.7008C10.9769 12.6002 11.2008 12.8241 11.2008 13.1002V13.5002C11.2008 13.7763 10.9769 14.0002 10.7008 14.0002H10.3008C10.0246 14.0002 9.80078 13.7763 9.80078 13.5002V13.1002ZM13.3008 13.1002C13.3008 12.8241 13.5246 12.6002 13.8008 12.6002H14.2008C14.4769 12.6002 14.7008 12.8241 14.7008 13.1002V13.5002C14.7008 13.7763 14.4769 14.0002 14.2008 14.0002H13.8008C13.5246 14.0002 13.3008 13.7763 13.3008 13.5002V13.1002ZM6.30078 8.90019C6.30078 8.62405 6.52464 8.4002 6.80078 8.4002H7.20078C7.47692 8.4002 7.70078 8.62405 7.70078 8.9002V9.3002C7.70078 9.57634 7.47692 9.8002 7.20078 9.8002H6.80078C6.52464 9.8002 6.30078 9.57634 6.30078 9.3002V8.90019ZM9.80078 8.90019C9.80078 8.62405 10.0246 8.4002 10.3008 8.4002H10.7008C10.9769 8.4002 11.2008 8.62405 11.2008 8.9002V9.3002C11.2008 9.57634 10.9769 9.8002 10.7008 9.8002H10.3008C10.0246 9.8002 9.80078 9.57634 9.80078 9.3002V8.90019ZM13.3008 8.90019C13.3008 8.62405 13.5246 8.4002 13.8008 8.4002H14.2008C14.4769 8.4002 14.7008 8.62405 14.7008 8.9002V9.3002C14.7008 9.57634 14.4769 9.8002 14.2008 9.8002H13.8008C13.5246 9.8002 13.3008 9.57634 13.3008 9.3002V8.90019ZM6.30078 4.70019C6.30078 4.42405 6.52464 4.2002 6.80078 4.2002H7.20078C7.47692 4.2002 7.70078 4.42405 7.70078 4.7002V5.1002C7.70078 5.37634 7.47692 5.6002 7.20078 5.6002H6.80078C6.52464 5.6002 6.30078 5.37634 6.30078 5.1002V4.70019ZM9.80078 4.70019C9.80078 4.42405 10.0246 4.2002 10.3008 4.2002H10.7008C10.9769 4.2002 11.2008 4.42405 11.2008 4.7002V5.1002C11.2008 5.37634 10.9769 5.6002 10.7008 5.6002H10.3008C10.0246 5.6002 9.80078 5.37634 9.80078 5.1002V4.70019ZM13.3008 4.70019C13.3008 4.42405 13.5246 4.2002 13.8008 4.2002H14.2008C14.4769 4.2002 14.7008 4.42405 14.7008 4.7002V5.1002C14.7008 5.37634 14.4769 5.6002 14.2008 5.6002H13.8008C13.5246 5.6002 13.3008 5.37634 13.3008 5.1002V4.70019Z" fill="#7E7E7E"/>
</svg>
